<svg width="50" height="50" viewBox="0 0 50 50" fill="none" xmlns="http://www.w3.org/2000/svg">
<g clip-path="url(#clip0_500_6217)">
<path d="M48.5547 20.3223H45.4004C44.873 18.0371 43.9844 15.8691 42.7344 13.8965L44.9707 11.6602C45.4883 11.1328 45.4785 10.2734 44.9609 9.74609L40.2441 5.04883C39.7461 4.52148 38.8281 4.51172 38.3301 5.03906L36.1035 7.26562C34.1309 6.01562 31.9727 5.12695 29.668 4.59961V1.44531C29.668 0.703125 29.0625 0.0976562 28.3203 0.0976562H21.6602C20.918 0.0976562 20.3125 0.703125 20.3125 1.44531V4.58984C18.0273 5.10742 15.8789 6.01562 13.8867 7.26562L11.6602 5.04883C11.1523 4.52148 10.2344 4.52148 9.74609 5.03906L5.0293 9.75586C4.51172 10.2832 4.51172 11.1328 5.0293 11.6699L7.26562 13.8965C6.00586 15.8789 5.10742 18.0859 4.59961 20.3223H1.43555C0.693359 20.3223 0.0976562 20.9277 0.0976562 21.6699V28.3301C0.0976562 29.0723 0.703125 29.6777 1.44531 29.6777H4.58984C5.11719 31.9629 6.01563 34.1211 7.25586 36.1133L5.01953 38.3398C4.49219 38.8672 4.49219 39.707 5.01953 40.2637L9.72656 44.9609C10.2344 45.4883 11.1523 45.4785 11.6406 44.9707L13.8672 42.7344C15.8594 43.9941 18.0176 44.8926 20.293 45.4004V48.5352C20.293 49.2871 20.9082 49.8926 21.6504 49.8926H28.3105C29.0527 49.8926 29.6582 49.2871 29.6582 48.5449V45.4004C31.9336 44.8828 34.0918 43.9844 36.084 42.7344L38.3105 44.9609C38.8086 45.498 39.7266 45.4883 40.2246 44.9707L44.9512 40.2539C45.4688 39.707 45.4688 38.8672 44.9414 38.3398L42.7051 36.1133C43.9551 34.1211 44.8535 31.9629 45.3711 29.6777H48.5156C49.2578 29.6777 49.8633 29.0723 49.8633 28.3301V21.6797C49.9023 20.9277 49.2969 20.3223 48.5547 20.3223ZM40.6641 31.0449C38.7109 36.2402 33.9355 40.3125 28.4961 41.4258C18.2617 43.75 8.06641 35.498 8.22266 25C8.22266 15.752 15.752 8.22266 25 8.22266C36.5527 7.99805 44.9902 20.3809 40.6641 31.0449ZM16.2793 23.457C16.6309 24.4629 16.875 25.5371 17.0898 26.5918C15.0879 26.9336 14.375 24.1113 16.2793 23.457ZM29.3066 31.6699C29.4531 31.709 29.5898 31.7383 29.7168 31.7773C29.1211 32.5488 28.5742 33.4277 28.1055 34.2969C27.7148 33.7109 27.2363 33.2324 26.6992 32.793C27.627 32.5781 28.5059 32.1875 29.3066 31.6699ZM20.6934 32.334C20.5566 32.1289 20.4199 31.9531 20.2832 31.7676C20.4199 31.7285 20.5566 31.6992 20.6934 31.6602C21.4844 32.1875 22.373 32.5781 23.291 32.7832C22.7539 33.2129 22.2656 33.7207 21.8848 34.2871C21.5332 33.6328 21.1426 32.959 20.6934 32.334ZM33.4375 26.6113C33.2715 26.6113 33.0957 26.582 32.9297 26.5332C33.1543 25.459 33.3594 24.4727 33.7402 23.3984C35.6348 23.7891 35.3906 26.582 33.4375 26.6113ZM36.2988 35.8691C33.5156 38.7793 29.5801 40.5469 25.5469 40.6738V33.3398C26.4648 33.9062 27.1875 34.7363 27.6465 35.7227C27.7734 36.0254 28.1738 36.1426 28.4473 35.9473C28.8477 35.5371 28.9648 34.9023 29.2969 34.4238C29.7461 33.6328 30.2539 32.8516 30.8301 32.1582C33.0566 32.959 34.9707 34.2578 36.2988 35.8691ZM24.4336 33.3398L24.4434 33.3301V40.6641C20.4199 40.5469 16.4746 38.7793 13.6914 35.8594C15.0195 34.248 16.9336 32.9395 19.1602 32.1387C19.7559 32.8711 20.3027 33.6914 20.752 34.5215C21.0645 34.9707 21.1621 35.5664 21.543 35.9375C21.8066 36.1328 22.2168 36.0059 22.3438 35.7129C22.8027 34.7266 23.5156 33.9062 24.4336 33.3398ZM26.0254 31.7969C24.3066 32.0605 22.5488 31.6504 21.123 30.625H21.1133C19.4238 29.4336 18.2422 27.4023 17.9395 25.3027C19.7559 24.4629 21.3184 23.1152 22.4609 21.4844C25.166 23.6914 28.5938 24.9902 32.0801 25.127C31.7188 28.3594 29.2676 31.2988 26.0254 31.7969ZM18.2227 23.9062C18.0371 24.0137 17.8613 24.1016 17.6855 24.1895C15.5762 19.248 19.6582 13.2617 25.0098 13.3789C30.3223 13.3008 34.3848 19.0527 32.3926 24.0234C30.3125 23.9746 28.2227 23.4863 26.3184 22.5977C25.0098 21.9824 23.8086 21.1914 22.7051 20.2344C22.5879 20.127 22.4219 20.0781 22.2559 20.0977C21.7383 20.2344 21.5137 21.0938 21.0938 21.4844C20.3027 22.4512 19.3262 23.3008 18.2227 23.9062ZM40.6836 25C40.6836 28.6914 39.3945 32.2363 37.041 35.0488C35.4395 33.1445 33.0078 31.6211 30.3613 30.8301C31.3184 29.9512 32.0605 28.8477 32.5684 27.5684C36.2793 28.6426 37.666 23.1543 33.916 22.3242C34.6191 17.1484 30.1953 12.2168 25 12.2852C19.7461 12.1973 15.4395 17.2266 16.0938 22.373C12.6465 23.3789 13.9355 28.4277 17.4512 27.6367C17.9492 28.877 18.7012 29.9609 19.6289 30.8301C16.9922 31.6309 14.5605 33.1543 12.959 35.0488C4.47266 24.9707 11.7969 9.27734 25 9.31641C33.6426 9.31641 40.6836 16.3574 40.6836 25Z" fill="black"/>
</g>
<defs>
<clipPath id="clip0_500_6217">
<rect width="50" height="50" fill="white"/>
</clipPath>
</defs>
</svg>
