<svg width="50" height="50" viewBox="0 0 50 50" fill="none" xmlns="http://www.w3.org/2000/svg">
<g clip-path="url(#clip0_500_6243)">
<path d="M37.1689 32.7381C36.7824 30.1116 35.4672 27.7106 33.462 25.9708C31.4568 24.2309 28.8943 23.2675 26.2395 23.2551H23.7653C21.1105 23.2675 18.5481 24.2309 16.5429 25.9708C14.5376 27.7106 13.2225 30.1116 12.8359 32.7381L11.65 41.0305C11.6121 41.2986 11.6371 41.5718 11.7231 41.8285C11.8091 42.0852 11.9536 42.3183 12.1453 42.5095C12.6104 42.9746 15.4636 45.3465 25.0048 45.3465C34.5459 45.3465 37.3922 42.9839 37.8642 42.5095C38.0559 42.3183 38.2004 42.0852 38.2864 41.8285C38.3724 41.5718 38.3974 41.2986 38.3595 41.0305L37.1689 32.7381ZM14.6753 24.5341C12.4279 26.6059 10.9656 29.3909 10.5361 32.4172L9.6757 38.3703C2.76926 38.3238 0.676396 35.8123 0.327586 35.3007C0.192755 35.1149 0.0965365 34.9039 0.0446144 34.6802C-0.00730776 34.4566 -0.0138807 34.2248 0.0252837 33.9985L0.536872 31.115C0.803415 29.608 1.42941 28.1875 2.36179 26.974C3.29416 25.7604 4.50541 24.7896 5.89285 24.1438C7.28028 23.498 8.80299 23.1963 10.3318 23.2642C11.8607 23.3322 13.3506 23.7678 14.6753 24.5341ZM49.9749 33.9985C50.0141 34.2248 50.0075 34.4566 49.9556 34.6802C49.9037 34.9039 49.8075 35.1149 49.6726 35.3007C49.3238 35.8123 47.2309 38.3238 40.3245 38.3703L39.4641 32.4172C39.0346 29.3909 37.5723 26.6059 35.3249 24.5341C36.6496 23.7678 38.1395 23.3322 39.6684 23.2642C41.1972 23.1963 42.7199 23.498 44.1074 24.1438C45.4948 24.7896 46.706 25.7604 47.6384 26.974C48.5708 28.1875 49.1968 29.608 49.4633 31.115L49.9749 33.9985ZM15.0706 19.4182C14.4853 20.2484 13.7082 20.925 12.8054 21.3906C11.9026 21.8561 10.9008 22.0969 9.88499 22.0924C8.87171 22.0924 7.87294 21.8517 6.97098 21.3899C6.06901 20.9282 5.28969 20.2587 4.69721 19.4367C4.10474 18.6147 3.71608 17.6637 3.56327 16.662C3.41046 15.6603 3.49787 14.6366 3.8183 13.6754C4.13872 12.7141 4.68299 11.8427 5.40625 11.133C6.12952 10.4234 7.01106 9.89574 7.97825 9.59362C8.94544 9.29149 9.97057 9.22352 10.9692 9.39532C11.9678 9.56711 12.9113 9.97374 13.7219 10.5817C13.4887 11.4935 13.3716 12.4311 13.3731 13.3722C13.3749 15.5049 13.962 17.5963 15.0706 19.4182ZM46.5101 15.6976C46.5107 16.5375 46.3457 17.3694 46.0245 18.1455C45.7034 18.9217 45.2324 19.6269 44.6384 20.2208C44.0445 20.8147 43.3393 21.2858 42.5631 21.6069C41.787 21.9281 40.9552 22.0931 40.1152 22.0924C39.0994 22.0969 38.0976 21.8561 37.1948 21.3906C36.292 20.925 35.5149 20.2484 34.9296 19.4182C36.0382 17.5963 36.6253 15.5049 36.6271 13.3722C36.6287 12.4311 36.5115 11.4935 36.2783 10.5817C37.2284 9.86915 38.3581 9.43523 39.5409 9.32858C40.7237 9.22192 41.9129 9.44675 42.9751 9.97786C44.0373 10.509 44.9306 11.3254 45.555 12.3356C46.1794 13.3459 46.5101 14.51 46.5101 15.6976Z" fill="black"/>
<path d="M24.9997 22.0929C29.8157 22.0929 33.7199 18.1887 33.7199 13.3726C33.7199 8.55654 29.8157 4.65234 24.9997 4.65234C20.1836 4.65234 16.2794 8.55654 16.2794 13.3726C16.2794 18.1887 20.1836 22.0929 24.9997 22.0929Z" fill="black"/>
</g>
<defs>
<clipPath id="clip0_500_6243">
<rect width="50" height="50" fill="white"/>
</clipPath>
</defs>
</svg>
